<svg xmlns="http://www.w3.org/2000/svg" xmlns:xlink="http://www.w3.org/1999/xlink" class="svg-standalone-icon" width="100%" height="100%" viewBox="0 0 137.99631474980583 160.89626686389235">
  <g data-paper-data='{"fillRule":"evenodd","fillRuleOriginal":"evenodd","isIcon":true,"iconStyle":"standalone","selectedEffects":{"container":"","transformation":"","pattern":""},"bounds":{"x":206.00184262509708,"y":120.09700537918937,"width":137.99631474980583,"height":160.89626686389235},"iconType":"initial","initialText":"FT","rawInitialId":219,"disableIconEffects":"true","monogramSpecial":"law","suitableAsStandaloneIcon":true}' fill-rule="evenodd">
    <path d="M0,0h137.99631v137.99631H0z" style="fill:#11111f"/>
    <path d="M206.00184,120.09701v160.89627h17.50695v-51.0622c0,-4.10985 1.26327,-7.31014 3.78982,-9.60088c2.52655,-2.29074 5.94581,-3.4361 10.25778,-3.4361c13.34017,0 22.97474,0.30319 28.9037,0.90956l-0.50531,7.78177h-25.87185c-2.35811,0 -4.02563,0.48847 -5.00256,1.4654c-0.97693,0.97693 -1.4654,2.64445 -1.4654,5.00256v15.05822h28.49945v8.18601h-28.49945v25.69566h60.53608v-54.90255h-21.93043v-8.99451h54.27024v8.99451h-22.13256v54.90255h39.63984v-160.89627z" data-paper-data='{"isPathIcon":true}' style="fill: #ffffff"/>
  </g>
</svg>
